<svg xmlns="http://www.w3.org/2000/svg" fill-rule="evenodd" clip-rule="evenodd" image-rendering="optimizeQuality" shape-rendering="geometricPrecision" text-rendering="geometricPrecision" viewBox="0 0 1466 2074"><path fill="#ced3db" d="M1021 686l-1 32 -4 154 21 -17c55,-47 131,-62 193,-17 42,31 65,81 61,133 -2,27 -12,53 -28,75 -71,98 -199,308 -310,402l0 5c22,17 36,43 35,73l0 35c8,13 13,28 14,45l13 375c1,26 -8,48 -26,67 -18,19 -40,28 -66,28l-510 0c-26,0 -49,-10 -67,-29 -18,-19 -26,-42 -24,-69l26 -380c1,-16 6,-31 15,-44l0 -36c0,-22 7,-41 20,-57l0 -6c-38,-46 -60,-108 -62,-168l-14 -369c0,-6 0,-11 1,-16l1 -7 3 -64c7,-166 253,-143 -128,-143 -59,0 -111,-37 -131,-92 -5,-15 -8,-31 -8,-47l0 -362c0,-77 62,-139 139,-139l1142 0c77,0 139,62 139,139l0 362c0,16 -3,32 -8,47 -20,55 -72,92 -131,92l-306 0z"/><path fill="#fff" d="M975 640l-1 32 -4 154 21 -17c55,-47 131,-62 193,-17 42,31 65,81 61,133 -2,27 -12,53 -28,75 -71,98 -199,308 -310,402l0 5c22,17 36,43 35,73l0 35c8,13 13,28 14,45l13 375c1,26 -8,48 -26,67 -18,19 -40,28 -66,28l-510 0c-26,0 -49,-10 -67,-29 -18,-19 -26,-42 -24,-69l26 -380c1,-16 6,-31 15,-44l0 -36c0,-22 7,-41 20,-57l0 -6c-38,-46 -60,-108 -62,-168l-14 -369c0,-6 0,-11 1,-16l1 -7 3 -64c7,-166 253,-143 -128,-143 -59,0 -111,-37 -131,-92 -5,-15 -8,-31 -8,-47l0 -362c0,-77 62,-139 139,-139l1142 0c77,0 139,62 139,139l0 362c0,16 -3,32 -8,47 -20,55 -72,92 -131,92l-306 0z"/><path fill="#ff7069" d="M139 91l1142 0c26,0 48,21 48,48l0 362c0,26 -21,48 -48,48l-1142 0c-26,0 -48,-21 -48,-48l0 -362c0,-26 21,-48 48,-48z"/><path fill="#f7635b" d="M94 517l1232 0c-7,18 -24,32 -45,32l-1142 0c-21,0 -38,-13 -45,-32z"/><path fill="#fff" fill-rule="nonzero" d="M483 192l-66 0 0 286 45 0 0 -108 21 0c45,0 67,-25 67,-71l0 -37c0,-46 -22,-71 -67,-71zm0 41c14,0 22,7 22,27l0 43c0,20 -8,27 -22,27l-21 0 0 -97 21 0zm131 25c0,-20 9,-28 23,-28 14,0 23,8 23,28l0 155c0,20 -9,28 -23,28 -14,0 -23,-8 -23,-28l0 -155zm-45 152c0,46 24,72 68,72 44,0 68,-26 68,-72l0 -149c0,-46 -24,-72 -68,-72 -44,0 -68,26 -68,72l0 149zm160 -149c0,82 88,93 88,152 0,20 -9,28 -23,28 -14,0 -23,-7 -23,-28l0 -20 -43 0 0 18c0,46 23,72 67,72 44,0 67,-26 67,-72 0,-82 -88,-93 -88,-152 0,-20 8,-28 22,-28 14,0 22,8 22,28l0 12 43 0 0 -9c0,-46 -22,-72 -66,-72 -44,0 -66,26 -66,72l0 0zm146 -28l47 0 0 245 45 0 0 -245 47 0 0 -41 -139 0 0 41z"/><path fill="#fed198" d="M1130 866l0 0c-26,-19 -56,-8 -80,13l-150 126 -11 -38 -11 -94 5 -204 5 -205c1,-32 -25,-60 -57,-60l0 0c-32,0 -59,25 -60,57l-9 352 -16 1 6 -82c2,-32 -25,-59 -57,-60 -32,-1 -58,25 -60,57l-6 89 -18 1 5 -57c3,-32 -25,-60 -57,-60l0 0c-32,0 -57,25 -60,57l-6 65 -21 1 1 -33c1,-32 -25,-60 -57,-60l0 0c-32,0 -59,25 -60,57l-3 68 -2 12 14 369c2,50 22,93 44,117 6,7 13,13 19,16l-21 567 427 0 -24 -582c92,-43 263,-318 330,-409 19,-26 13,-62 -13,-80z"/><path fill="#f0b97d" d="M837 1937l-24 -582c92,-43 263,-318 330,-409 6,-9 10,-19 11,-29 -59,76 -281,392 -373,426l22 594 34 0z"/><polygon fill="#83cf8f" points="865 1562 394 1557 368 1937 878 1937"/><polygon fill="#f2f2f2" points="851 1479 409 1471 409 1557 851 1564"/><path fill="#e4e7ed" d="M461 1628c-21,0 -37,16 -38,36 0,20 16,36 37,37 21,0 37,-16 38,-36 0,-20 -16,-36 -37,-37z"/><path fill="#fff" d="M1074 877l-37 36 55 56 37-36c28-28-27-83-55-56zM792 450l-2 44 79 2 2-44c1-35-81-36-79-2z"/></svg>